<svg version="1.1" viewBox="0.0 0.0 954.7821522309712 318.63254593175856" fill="none" stroke="none" stroke-linecap="square" stroke-miterlimit="10" xmlns:xlink="http://www.w3.org/1999/xlink" xmlns="http://www.w3.org/2000/svg"><clipPath id="p.0"><path d="m0 0l954.78217 0l0 318.63254l-954.78217 0l0 -318.63254z" clip-rule="nonzero"/></clipPath><g clip-path="url(#p.0)"><path fill="#000000" fill-opacity="0.0" d="m0 0l954.78217 0l0 318.63254l-954.78217 0z" fill-rule="evenodd"/><path fill="#cfe2f3" d="m42.548557 108.36352l165.51968 0l0 152.85825l-165.51968 0z" fill-rule="evenodd"/><path fill="#a5b4c2" d="m208.06824 108.36352l50.95276 -50.952755l0 152.85826l-50.95276 50.952744z" fill-rule="evenodd"/><path fill="#d8e7f5" d="m42.548557 108.36352l50.952755 -50.952755l165.51968 0l-50.95276 50.952755z" fill-rule="evenodd"/><path fill="#000000" fill-opacity="0.0" d="m42.548557 108.36352l50.952755 -50.952755l165.51968 0l0 152.85826l-50.95276 50.952744l-165.51968 0zm0 0l165.51968 0l50.95276 -50.952755m-50.95276 50.952755l0 152.85825" fill-rule="evenodd"/><path stroke="#000000" stroke-width="1.0" stroke-linejoin="round" stroke-linecap="butt" d="m42.548557 108.36352l50.952755 -50.952755l165.51968 0l0 152.85826l-50.95276 50.952744l-165.51968 0zm0 0l165.51968 0l50.95276 -50.952755m-50.95276 50.952755l0 152.85825" fill-rule="evenodd"/><path fill="#000000" d="m70.166115 191.71265l0 -13.359375l1.78125 0l0 11.78125l6.5625 0l0 1.578125l-8.34375 0zm9.922592 -6.5q0 -3.328125 1.78125 -5.203125q1.78125 -1.890625 4.609375 -1.890625q1.84375 0 3.328125 0.890625q1.484375 0.875 2.265625 2.46875q0.78125 1.578125 0.78125 3.578125q0 2.03125 -0.828125 3.640625q-0.8125 1.59375 -2.3125 2.421875q-1.5 0.828125 -3.25 0.828125q-1.875 0 -3.359375 -0.90625q-1.484375 -0.921875 -2.25 -2.5q-0.765625 -1.578125 -0.765625 -3.328125zm1.8125 0.015625q0 2.421875 1.296875 3.8125q1.296875 1.390625 3.265625 1.390625q2.0 0 3.28125 -1.40625q1.28125 -1.40625 1.28125 -3.984375q0 -1.625 -0.546875 -2.84375q-0.546875 -1.21875 -1.609375 -1.875q-1.0625 -0.671875 -2.375 -0.671875q-1.890625 0 -3.25 1.296875q-1.34375 1.28125 -1.34375 4.28125zm22.761429 1.796875l1.765625 0.453125q-0.5625 2.171875 -2.0 3.328125q-1.4375 1.140625 -3.53125 1.140625q-2.15625 0 -3.515625 -0.875q-1.34375 -0.890625 -2.0625 -2.546875q-0.703125 -1.671875 -0.703125 -3.59375q0 -2.078125 0.796875 -3.625q0.796875 -1.5625 2.265625 -2.359375q1.484375 -0.8125 3.25 -0.8125q2.0 0 3.359375 1.015625q1.375 1.015625 1.90625 2.875l-1.734375 0.40625q-0.46875 -1.453125 -1.359375 -2.109375q-0.875 -0.671875 -2.203125 -0.671875q-1.546875 0 -2.578125 0.734375q-1.03125 0.734375 -1.453125 1.984375q-0.421875 1.234375 -0.421875 2.5625q0 1.703125 0.5 2.96875q0.5 1.265625 1.546875 1.90625q1.046875 0.625 2.265625 0.625q1.484375 0 2.515625 -0.859375q1.03125 -0.859375 1.390625 -2.546875zm2.4729462 4.6875l5.125 -13.359375l1.90625 0l5.46875 13.359375l-2.015625 0l-1.546875 -4.046875l-5.59375 0l-1.46875 4.046875l-1.875 0zm3.859375 -5.484375l4.53125 0l-1.40625 -3.703125q-0.625 -1.6875 -0.9375 -2.765625q-0.265625 1.28125 -0.71875 2.546875l-1.46875 3.921875zm9.974823 5.484375l0 -13.359375l1.78125 0l0 11.78125l6.5625076 0l0 1.578125l-8.343758 0zm10.51635 0l0 -13.359375l1.765625 0l0 5.484375l6.9375 0l0 -5.484375l1.765625 0l0 13.359375l-1.765625 0l0 -6.296875l-6.9375 0l0 6.296875l-1.765625 0zm12.879196 -6.5q0 -3.328125 1.78125 -5.203125q1.78125 -1.890625 4.609375 -1.890625q1.84375 0 3.328125 0.890625q1.484375 0.875 2.265625 2.46875q0.78125 1.578125 0.78125 3.578125q0 2.03125 -0.828125 3.640625q-0.8125 1.59375 -2.3125 2.421875q-1.5 0.828125 -3.25 0.828125q-1.875 0 -3.359375 -0.90625q-1.484375 -0.921875 -2.25 -2.5q-0.765625 -1.578125 -0.765625 -3.328125zm1.8125 0.015625q0 2.421875 1.296875 3.8125q1.296875 1.390625 3.265625 1.390625q2.0 0 3.28125 -1.40625q1.28125 -1.40625 1.28125 -3.984375q0 -1.625 -0.546875 -2.84375q-0.546875 -1.21875 -1.609375 -1.875q-1.0625 -0.671875 -2.375 -0.671875q-1.890625 0 -3.25 1.296875q-1.34375 1.28125 -1.34375 4.28125zm12.636429 2.1875l1.65625 -0.140625q0.125 1.0 0.546875 1.640625q0.4375 0.640625 1.34375 1.046875q0.921875 0.390625 2.0625 0.390625q1.0 0 1.78125 -0.296875q0.78125 -0.296875 1.15625 -0.8125q0.375 -0.53125 0.375 -1.15625q0 -0.625 -0.375 -1.09375q-0.359375 -0.46875 -1.1875 -0.796875q-0.546875 -0.203125 -2.390625 -0.640625q-1.828125 -0.453125 -2.5625 -0.84375q-0.96875 -0.5 -1.4375 -1.234375q-0.46875 -0.75 -0.46875 -1.671875q0 -1.0 0.578125 -1.875q0.578125 -0.890625 1.671875 -1.34375q1.109375 -0.453125 2.453125 -0.453125q1.484375 0 2.609375 0.484375q1.140625 0.46875 1.75 1.40625q0.609375 0.921875 0.65625 2.09375l-1.6875 0.125q-0.140625 -1.265625 -0.9375 -1.90625q-0.78125 -0.65625 -2.3125 -0.65625q-1.609375 0 -2.34375 0.59375q-0.734375 0.59375 -0.734375 1.421875q0 0.71875 0.53125 1.171875q0.5 0.46875 2.65625 0.96875q2.15625 0.484375 2.953125 0.84375q1.171875 0.53125 1.71875 1.359375q0.5625 0.828125 0.5625 1.90625q0 1.0625 -0.609375 2.015625q-0.609375 0.9375 -1.75 1.46875q-1.140625 0.515625 -2.578125 0.515625q-1.8125 0 -3.046875 -0.53125q-1.21875 -0.53125 -1.921875 -1.59375q-0.6875 -1.0625 -0.71875 -2.40625zm16.443558 4.296875l0 -11.78125l-4.40625 0l0 -1.578125l10.578125 0l0 1.578125l-4.40625 0l0 11.78125l-1.765625 0z" fill-rule="nonzero"/><path fill="#cfe2f3" d="m294.12073 134.30315l53.7323 0l0 -8.960625l17.921265 17.921257l-17.921265 17.921265l0 -8.960632l-53.7323 0z" fill-rule="evenodd"/><path stroke="#000000" stroke-width="1.0" stroke-linejoin="round" stroke-linecap="butt" d="m294.12073 134.30315l53.7323 0l0 -8.960625l17.921265 17.921257l-17.921265 17.921265l0 -8.960632l-53.7323 0z" fill-rule="evenodd"/><path fill="#cfe2f3" d="m398.04593 100.708664l0 0c0 7.834175 39.603424 14.185036 88.456696 14.185036c48.85327 0 88.456665 -6.3508606 88.456665 -14.185036l0 85.11023c0 7.8341827 -39.603394 14.185043 -88.456665 14.185043c-48.85327 0 -88.456696 -6.3508606 -88.456696 -14.185043z" fill-rule="evenodd"/><path fill="#e2edf7" d="m398.04593 100.708664l0 0c0 -7.8341827 39.603424 -14.185043 88.456696 -14.185043c48.85327 0 88.456665 6.3508606 88.456665 14.185043l0 0c0 7.834175 -39.603394 14.185036 -88.456665 14.185036c-48.85327 0 -88.456696 -6.3508606 -88.456696 -14.185036z" fill-rule="evenodd"/><path fill="#000000" fill-opacity="0.0" d="m574.9593 100.708664l0 0c0 7.834175 -39.603394 14.185036 -88.456665 14.185036c-48.85327 0 -88.456696 -6.3508606 -88.456696 -14.185036l0 0c0 -7.8341827 39.603424 -14.185043 88.456696 -14.185043c48.85327 0 88.456665 6.3508606 88.456665 14.185043l0 85.11023c0 7.8341827 -39.603394 14.185043 -88.456665 14.185043c-48.85327 0 -88.456696 -6.3508606 -88.456696 -14.185043l0 -85.11023" fill-rule="evenodd"/><path stroke="#000000" stroke-width="1.0" stroke-linejoin="round" stroke-linecap="butt" d="m574.9593 100.708664l0 0c0 7.834175 -39.603394 14.185036 -88.456665 14.185036c-48.85327 0 -88.456696 -6.3508606 -88.456696 -14.185036l0 0c0 -7.8341827 39.603424 -14.185043 88.456696 -14.185043c48.85327 0 88.456665 6.3508606 88.456665 14.185043l0 85.11023c0 7.8341827 -39.603394 14.185043 -88.456665 14.185043c-48.85327 0 -88.456696 -6.3508606 -88.456696 -14.185043l0 -85.11023" fill-rule="evenodd"/><path fill="#000000" d="m473.08728 157.2763l-5.171875 -13.359375l1.921875 0l3.46875 9.703125q0.421875 1.171875 0.703125 2.1875q0.3125 -1.09375 0.71875 -2.1875l3.609375 -9.703125l1.796875 0l-5.234375 13.359375l-1.8125 0zm8.631073 0l0 -13.359375l5.046875 0q1.328125 0 2.03125 0.125q0.96875 0.171875 1.640625 0.640625q0.671875 0.453125 1.078125 1.28125q0.40625 0.828125 0.40625 1.828125q0 1.703125 -1.09375 2.890625q-1.078125 1.171875 -3.921875 1.171875l-3.421875 0l0 5.421875l-1.765625 0zm1.765625 -7.0l3.453125 0q1.71875 0 2.4375 -0.640625q0.71875 -0.640625 0.71875 -1.796875q0 -0.84375 -0.421875 -1.4375q-0.421875 -0.59375 -1.125 -0.78125q-0.4375 -0.125 -1.640625 -0.125l-3.421875 0l0 4.78125zm10.084198 2.703125l1.65625 -0.140625q0.125 1.0 0.546875 1.640625q0.4375 0.640625 1.34375 1.046875q0.921875 0.390625 2.0625 0.390625q1.0 0 1.78125 -0.296875q0.78125 -0.296875 1.15625 -0.8125q0.375 -0.53125 0.375 -1.15625q0 -0.625 -0.375 -1.09375q-0.359375 -0.46875 -1.1875 -0.796875q-0.546875 -0.203125 -2.390625 -0.640625q-1.828125 -0.453125 -2.5625 -0.84375q-0.96875 -0.5 -1.4375 -1.234375q-0.46875 -0.75 -0.46875 -1.671875q0 -1.0 0.578125 -1.875q0.578125 -0.890625 1.671875 -1.34375q1.109375 -0.453125 2.453125 -0.453125q1.484375 0 2.609375 0.484375q1.140625 0.46875 1.75 1.40625q0.609375 0.921875 0.65625 2.09375l-1.6875 0.125q-0.140625 -1.265625 -0.9375 -1.90625q-0.78125 -0.65625 -2.3125 -0.65625q-1.609375 0 -2.34375 0.59375q-0.734375 0.59375 -0.734375 1.421875q0 0.71875 0.53125 1.171875q0.5 0.46875 2.65625 0.96875q2.15625 0.484375 2.953125 0.84375q1.171875 0.53125 1.71875 1.359375q0.5625 0.828125 0.5625 1.90625q0 1.0625 -0.609375 2.015625q-0.609375 0.9375 -1.75 1.46875q-1.140625 0.515625 -2.578125 0.515625q-1.8125 0 -3.046875 -0.53125q-1.21875 -0.53125 -1.921875 -1.59375q-0.6875 -1.0625 -0.71875 -2.40625z" fill-rule="nonzero"/><path fill="#cfe2f3" d="m607.23096 134.30315l53.7323 0l0 -8.960625l17.921265 17.921257l-17.921265 17.921265l0 -8.960632l-53.7323 0z" fill-rule="evenodd"/><path stroke="#000000" stroke-width="1.0" stroke-linejoin="round" stroke-linecap="butt" d="m607.23096 134.30315l53.7323 0l0 -8.960625l17.921265 17.921257l-17.921265 17.921265l0 -8.960632l-53.7323 0z" fill-rule="evenodd"/><path fill="#cfe2f3" d="m723.4388 118.902115l0 0c-1.6732788 -11.7419815 3.8203735 -23.36583 14.149841 -29.939117c10.329468 -6.5732956 23.683105 -6.9432144 34.39453 -0.9527893l0 0c3.7943115 -6.8272705 10.739014 -11.541031 18.73352 -12.715462c7.994446 -1.1744308 16.09967 1.3284149 21.863953 6.75148l0 0c3.2322998 -6.190048 9.578918 -10.3489685 16.78778 -11.000961c7.2088623 -0.6519928 14.259705 2.2952118 18.650574 7.7957993l0 0c5.8395386 -6.561432 15.130432 -9.324074 23.852417 -7.092499c8.722046 2.2315674 15.308594 9.056534 16.909668 17.52169l0 0c7.15448 1.8634796 13.113953 6.6006775 16.338806 12.987663c3.2247925 6.386986 3.3985596 13.797203 0.47644043 20.316093l0 0c7.045044 8.755592 8.693054 20.422295 4.3290405 30.646324c-4.3640747 10.22403 -14.084473 17.46933 -25.533813 19.03209c-0.08068848 9.595612 -5.591858 18.400436 -14.409119 23.020706c-8.817322 4.6202545 -19.563965 4.334488 -28.097717 -0.7471466l0 0c-3.6349487 11.492401 -13.866089 19.94841 -26.273132 21.714706c-12.4071045 1.7662964 -24.76593 -3.4737701 -31.737 -13.456284l0 0c-8.545166 4.92041 -18.798584 6.3378296 -28.447327 3.9325104c-9.648804 -2.4053192 -17.880188 -8.430771 -22.83728 -16.717133l0 0c-8.732056 0.9757385 -17.174683 -3.344284 -21.13794 -10.816071c-3.9632568 -7.4717865 -2.6033936 -16.50476 3.4047241 -22.61589l0 0c-7.7892456 -4.3777313 -11.763733 -13.064575 -9.851013 -21.530716c1.9127197 -8.466133 9.279236 -14.793083 18.25824 -15.6816025z" fill-rule="evenodd"/><path fill="#000000" fill-opacity="0.0" d="m714.85895 156.56699l0 0c3.6757202 2.065857 7.922119 3.0029907 12.168884 2.6855469m5.562439 30.747162c1.826294 -0.20407104 3.616394 -0.6362152 5.3241577 -1.2853088m45.957886 14.069397c-1.2844849 -1.8393707 -2.3599243 -3.8048859 -3.2080078 -5.863083m61.220337 -2.395691l0 0c0.6627197 -2.09523 1.092041 -4.2516937 1.2809448 -6.43338m41.224304 -15.839371c0.085876465 -10.216003 -5.9906616 -19.5699 -15.619629 -24.043884m36.824158 -25.633446c-1.5593262 3.4787445 -3.9399414 6.5646896 -6.955017 9.015877m-9.858704 -42.32055l0 0c0.26568604 1.4048004 0.38861084 2.8307114 0.3671875 4.257965m-41.1286 -14.686729l0 0c-1.4567261 1.6367493 -2.6567993 3.4657974 -3.5629883 5.430191m-31.875671 -2.2257462l0 0c-0.77630615 1.4866486 -1.355957 3.0597763 -1.725708 4.6831512m-38.872375 1.2809601l0 0c2.2665405 1.2675705 4.3634033 2.7932281 6.244507 4.5434494m-54.78827 26.348618l0 0c0.23059082 1.6183472 0.5949707 3.216751 1.0897217 4.7802353" fill-rule="evenodd"/><path stroke="#000000" stroke-width="1.0" stroke-linejoin="round" stroke-linecap="butt" d="m723.4388 118.902115l0 0c-1.6732788 -11.7419815 3.8203735 -23.36583 14.149841 -29.939117c10.329468 -6.5732956 23.683105 -6.9432144 34.39453 -0.9527893l0 0c3.7943115 -6.8272705 10.739014 -11.541031 18.73352 -12.715462c7.994446 -1.1744308 16.09967 1.3284149 21.863953 6.75148l0 0c3.2322998 -6.190048 9.578918 -10.3489685 16.78778 -11.000961c7.2088623 -0.6519928 14.259705 2.2952118 18.650574 7.7957993l0 0c5.8395386 -6.561432 15.130432 -9.324074 23.852417 -7.092499c8.722046 2.2315674 15.308594 9.056534 16.909668 17.52169l0 0c7.15448 1.8634796 13.113953 6.6006775 16.338806 12.987663c3.2247925 6.386986 3.3985596 13.797203 0.47644043 20.316093l0 0c7.045044 8.755592 8.693054 20.422295 4.3290405 30.646324c-4.3640747 10.22403 -14.084473 17.46933 -25.533813 19.03209c-0.08068848 9.595612 -5.591858 18.400436 -14.409119 23.020706c-8.817322 4.6202545 -19.563965 4.334488 -28.097717 -0.7471466l0 0c-3.6349487 11.492401 -13.866089 19.94841 -26.273132 21.714706c-12.4071045 1.7662964 -24.76593 -3.4737701 -31.737 -13.456284l0 0c-8.545166 4.92041 -18.798584 6.3378296 -28.447327 3.9325104c-9.648804 -2.4053192 -17.880188 -8.430771 -22.83728 -16.717133l0 0c-8.732056 0.9757385 -17.174683 -3.344284 -21.13794 -10.816071c-3.9632568 -7.4717865 -2.6033936 -16.50476 3.4047241 -22.61589l0 0c-7.7892456 -4.3777313 -11.763733 -13.064575 -9.851013 -21.530716c1.9127197 -8.466133 9.279236 -14.793083 18.25824 -15.6816025z" fill-rule="evenodd"/><path stroke="#000000" stroke-width="1.0" stroke-linejoin="round" stroke-linecap="butt" d="m714.85895 156.56699l0 0c3.6757202 2.065857 7.922119 3.0029907 12.168884 2.6855469m5.562439 30.747162c1.826294 -0.20407104 3.616394 -0.6362152 5.3241577 -1.2853088m45.957886 14.069397c-1.2844849 -1.8393707 -2.3599243 -3.8048859 -3.2080078 -5.863083m61.220337 -2.395691l0 0c0.6627197 -2.09523 1.092041 -4.2516937 1.2809448 -6.43338m41.224304 -15.839371c0.085876465 -10.216003 -5.9906616 -19.5699 -15.619629 -24.043884m36.824158 -25.633446c-1.5593262 3.4787445 -3.9399414 6.5646896 -6.955017 9.015877m-9.858704 -42.32055l0 0c0.26568604 1.4048004 0.38861084 2.8307114 0.3671875 4.257965m-41.1286 -14.686729l0 0c-1.4567261 1.6367493 -2.6567993 3.4657974 -3.5629883 5.430191m-31.875671 -2.2257462l0 0c-0.77630615 1.4866486 -1.355957 3.0597763 -1.725708 4.6831512m-38.872375 1.2809601l0 0c2.2665405 1.2675705 4.3634033 2.7932281 6.244507 4.5434494m-54.78827 26.348618l0 0c0.23059082 1.6183472 0.5949707 3.216751 1.0897217 4.7802353" fill-rule="evenodd"/><path fill="#000000" d="m756.18335 146.81107l0 -13.359375l1.765625 0l0 13.359375l-1.765625 0zm4.8707886 0l0 -13.359375l1.8125 0l7.015625 10.484375l0 -10.484375l1.6875 0l0 13.359375l-1.8125 0l-7.015625 -10.5l0 10.5l-1.6875 0zm16.894836 0l0 -11.78125l-4.40625 0l0 -1.578125l10.578125 0l0 1.578125l-4.40625 0l0 11.78125l-1.765625 0zm8.020996 0l0 -13.359375l9.65625 0l0 1.578125l-7.875 0l0 4.09375l7.375 0l0 1.5625l-7.375 0l0 4.546875l8.1875 0l0 1.578125l-9.96875 0zm12.4435425 0l0 -13.359375l5.921875 0q1.78125 0 2.703125 0.359375q0.9375 0.359375 1.484375 1.28125q0.5625 0.90625 0.5625 2.015625q0 1.40625 -0.921875 2.390625q-0.921875 0.96875 -2.84375 1.234375q0.703125 0.34375 1.078125 0.671875q0.765625 0.703125 1.453125 1.765625l2.328125 3.640625l-2.21875 0l-1.765625 -2.78125q-0.78125 -1.203125 -1.28125 -1.828125q-0.5 -0.640625 -0.90625 -0.890625q-0.390625 -0.265625 -0.796875 -0.359375q-0.296875 -0.078125 -0.984375 -0.078125l-2.046875 0l0 5.9375l-1.765625 0zm1.765625 -7.453125l3.796875 0q1.21875 0 1.890625 -0.25q0.6875 -0.265625 1.046875 -0.8125q0.359375 -0.546875 0.359375 -1.1875q0 -0.953125 -0.6875 -1.5625q-0.6875 -0.609375 -2.1875 -0.609375l-4.21875 0l0 4.421875zm11.660461 7.453125l0 -13.359375l1.8125 0l7.015625 10.484375l0 -10.484375l1.6875 0l0 13.359375l-1.8125 0l-7.015625 -10.5l0 10.5l-1.6875 0zm13.519836 0l0 -13.359375l9.65625 0l0 1.578125l-7.875 0l0 4.09375l7.375 0l0 1.5625l-7.375 0l0 4.546875l8.1875 0l0 1.578125l-9.96875 0zm15.8185425 0l0 -11.78125l-4.40625 0l0 -1.578125l10.578125 0l0 1.578125l-4.40625 0l0 11.78125l-1.765625 0z" fill-rule="nonzero"/></g></svg>